<?xml version="1.0" encoding="UTF-8" ?>
<!DOCTYPE svg PUBLIC "-//W3C//DTD SVG 1.1//EN" "http://www.w3.org/Graphics/SVG/1.1/DTD/svg11.dtd">
<svg width="347pt" height="163pt" viewBox="0 0 347 163" version="1.1" xmlns="http://www.w3.org/2000/svg">
<path fill="#ffffff" d=" M 0.00 0.00 L 347.00 0.00 L 347.00 163.00 L 0.00 163.00 L 0.00 0.00 Z" />
<path fill="#000000" d=" M 189.29 9.97 C 193.09 10.02 196.89 10.02 200.69 9.97 C 202.85 11.17 204.67 12.85 206.10 14.87 C 206.02 16.95 206.00 19.04 205.98 21.12 C 209.67 21.14 213.37 21.04 217.07 21.13 C 220.88 21.12 224.77 23.88 224.96 27.90 C 225.07 40.11 224.95 52.33 225.01 64.55 C 223.81 66.87 222.02 68.88 219.54 69.84 C 203.24 69.71 186.93 69.88 170.62 69.75 C 170.01 69.53 168.80 69.09 168.20 68.87 C 166.75 67.25 164.94 65.47 165.01 63.12 C 165.01 51.38 164.95 39.63 165.04 27.89 C 165.25 23.92 169.07 21.16 172.85 21.13 C 176.56 21.04 180.28 21.14 183.99 21.12 C 183.98 19.01 183.99 16.90 183.96 14.80 C 185.40 12.85 187.18 11.18 189.29 9.97 Z" />
<path fill="#ffffff" d=" M 191.12 17.91 C 193.68 17.26 196.36 17.23 198.92 17.92 C 198.93 18.72 198.95 20.31 198.96 21.11 C 196.32 21.11 193.67 21.11 191.03 21.11 C 191.05 20.31 191.10 18.71 191.12 17.91 Z" />
<path fill="#000000" d=" M 294.70 37.20 C 293.19 33.47 293.87 28.56 297.17 26.00 C 297.51 27.25 297.88 28.49 298.27 29.72 C 305.10 30.54 312.06 29.47 318.90 30.25 C 323.55 31.40 324.33 36.98 324.19 41.01 C 323.92 49.57 324.59 58.20 323.75 66.73 C 323.72 69.04 321.31 69.78 319.47 70.23 C 319.06 61.47 319.50 52.70 319.25 43.94 C 319.35 41.53 317.40 39.54 314.98 39.62 C 310.68 39.47 304.85 38.38 302.48 43.07 C 296.86 51.12 305.61 61.59 299.88 69.49 C 296.11 70.61 291.96 69.82 288.05 69.85 C 288.63 66.71 289.47 63.63 290.43 60.59 C 292.30 60.52 294.16 60.43 296.03 60.30 C 294.99 53.24 294.44 44.70 300.49 39.62 C 298.41 39.34 295.78 39.37 294.70 37.20 Z" />
<path fill="#000000" d=" M 24.01 39.39 C 17.81 38.89 18.32 28.92 22.99 26.62 C 23.23 27.42 23.69 29.01 23.92 29.81 C 30.96 30.40 38.06 29.59 45.08 30.20 C 49.44 31.64 48.69 39.12 44.13 39.83 C 44.01 50.22 44.43 60.61 45.26 70.96 C 45.35 75.01 45.93 79.10 45.25 83.12 C 44.58 85.95 41.99 87.81 39.17 88.08 C 39.97 71.90 39.81 55.69 40.54 39.50 C 35.03 39.41 29.51 39.67 24.01 39.39 Z" />
<path fill="#000000" d=" M 54.79 36.76 C 53.70 33.16 54.00 28.20 57.65 26.14 C 57.87 27.03 58.31 28.81 58.54 29.70 C 61.69 30.43 65.36 29.28 68.11 31.41 C 70.30 33.66 70.33 37.04 70.34 39.97 C 70.29 48.69 70.67 57.42 70.14 66.11 C 69.90 68.45 67.86 69.78 65.79 70.40 C 65.50 61.56 65.82 52.72 65.64 43.88 C 65.71 42.25 65.10 40.21 63.21 39.94 C 60.38 39.17 56.21 40.09 54.79 36.76 Z" />
<path fill="#000000" d=" M 80.80 37.93 C 78.54 34.35 79.42 28.77 83.08 26.44 C 83.33 27.59 83.57 28.74 83.82 29.89 C 87.23 30.31 92.34 28.82 94.11 32.77 C 95.73 37.42 93.50 42.28 93.41 47.01 C 92.46 54.64 98.19 62.56 94.05 69.84 C 87.77 70.20 81.47 69.95 75.18 69.94 C 75.67 66.74 76.54 63.62 77.50 60.53 C 81.00 60.42 84.53 60.74 88.01 60.28 C 90.41 58.28 89.19 54.74 89.39 52.02 C 88.92 48.03 90.23 43.95 89.27 40.03 C 86.52 39.02 83.05 40.17 80.80 37.93 Z" />
<path fill="#000000" d=" M 102.30 35.13 C 101.99 32.05 102.36 28.05 105.63 26.67 C 105.84 27.43 106.25 28.95 106.46 29.72 C 109.78 30.56 114.32 28.88 116.64 32.14 C 120.34 38.94 117.25 47.77 111.43 52.37 C 110.59 53.28 107.72 52.69 108.63 50.98 C 110.70 48.06 114.61 44.75 112.46 40.82 C 110.68 39.05 107.98 39.76 105.76 39.20 C 103.78 38.95 102.40 37.04 102.30 35.13 Z" />
<path fill="#000000" d=" M 124.58 36.09 C 123.89 32.75 124.38 28.42 127.66 26.59 C 127.89 27.36 128.35 28.91 128.59 29.68 C 138.10 30.70 147.81 29.23 157.33 30.44 C 157.52 33.32 157.53 36.20 157.47 39.08 C 156.20 40.39 154.92 41.85 154.84 43.77 C 154.50 50.94 157.12 57.98 156.23 65.13 C 155.77 68.38 152.92 70.55 149.74 70.58 C 151.18 62.75 149.98 54.80 150.32 46.92 C 150.31 44.32 151.33 41.92 152.48 39.64 C 147.31 39.44 142.14 39.43 136.98 39.55 C 135.16 39.58 133.18 40.57 132.63 42.41 C 130.45 50.11 133.54 58.12 132.02 65.87 C 131.36 68.81 128.58 70.42 125.74 70.55 C 127.18 62.54 126.00 54.35 126.93 46.30 C 127.21 44.01 128.38 41.99 129.52 40.03 C 127.62 39.13 125.08 38.45 124.58 36.09 Z" />
<path fill="#000000" d=" M 235.80 39.12 C 231.04 36.92 232.24 29.13 236.09 26.53 C 236.36 27.34 236.90 28.97 237.18 29.78 C 244.17 30.37 251.22 29.72 258.23 30.08 C 262.15 30.34 264.50 34.26 264.63 37.88 C 264.96 43.20 265.35 49.24 261.91 53.73 C 258.62 57.81 253.26 59.15 249.15 62.14 C 246.90 63.60 247.11 66.58 246.13 68.79 C 243.79 71.11 240.57 67.47 242.09 65.00 C 244.59 57.56 253.61 56.00 257.98 50.09 C 260.20 46.80 259.55 40.93 255.22 39.81 C 248.80 38.87 242.21 40.17 235.80 39.12 Z" />
<path fill="#000000" d=" M 272.42 27.31 C 274.52 25.56 273.59 30.71 275.80 29.95 C 278.74 30.22 282.69 29.27 284.64 32.14 C 287.55 37.37 286.26 44.14 282.80 48.80 C 281.21 50.91 279.18 53.77 276.15 52.36 C 277.61 48.55 282.85 45.35 280.45 40.82 C 277.82 38.27 272.75 40.84 270.84 37.08 C 269.72 33.95 269.87 29.72 272.42 27.31 Z" />
<path fill="#ffffff" d=" M 172.76 28.99 C 187.59 29.05 202.42 29.03 217.25 29.01 C 217.90 40.09 217.68 51.27 217.36 62.37 C 203.92 62.90 190.46 62.43 177.01 62.63 C 175.03 62.61 171.78 62.98 172.45 59.95 C 172.58 49.64 172.03 39.28 172.76 28.99 Z" />
<path fill="#000000" d=" M 182.46 36.43 C 188.53 35.58 194.80 36.34 200.95 36.07 C 203.72 36.31 207.31 35.17 209.28 37.78 C 211.53 40.08 208.99 44.02 206.06 43.91 C 199.02 44.00 191.98 43.91 184.93 43.94 C 182.65 44.24 179.82 42.54 179.96 40.04 C 179.69 38.40 181.13 37.09 182.46 36.43 Z" />
<path fill="#000000" d=" M 233.95 48.03 C 233.91 45.12 236.76 43.97 239.22 43.78 C 238.52 51.83 238.79 59.91 238.85 67.97 C 239.17 73.63 239.39 79.35 238.40 84.95 C 238.04 87.23 235.42 87.74 233.62 88.33 C 233.30 84.22 234.11 80.15 234.11 76.04 C 233.78 66.71 233.49 57.35 233.95 48.03 Z" />
<path fill="#000000" d=" M 180.96 47.95 C 190.27 47.50 199.65 47.44 208.97 47.98 C 209.51 49.41 209.94 50.87 210.26 52.37 C 209.34 53.24 208.42 54.13 207.51 55.01 C 199.15 55.03 190.80 55.03 182.44 55.01 C 181.54 54.13 180.65 53.25 179.75 52.37 C 180.06 50.88 180.50 49.41 180.96 47.95 Z" />
<path fill="#000000" d=" M 226.46 98.05 C 228.16 98.67 229.82 99.38 231.53 99.99 C 231.44 103.56 229.23 106.70 229.53 110.33 C 234.20 111.73 239.12 110.44 243.85 111.28 C 245.85 114.35 245.38 118.51 244.56 121.94 C 243.58 126.25 238.12 126.61 236.10 130.14 C 235.76 131.48 236.09 132.87 236.02 134.24 C 234.92 135.88 232.14 134.73 232.36 132.86 C 231.99 128.88 236.19 126.92 238.82 124.81 C 241.36 123.29 242.35 120.09 241.58 117.30 C 237.08 115.99 232.10 117.13 227.42 116.66 C 226.96 112.23 227.57 107.81 228.73 103.53 C 227.88 102.97 227.03 102.42 226.18 101.87 C 226.27 100.60 226.36 99.32 226.46 98.05 Z" />
<path fill="#000000" d=" M 41.02 108.42 C 41.21 109.06 41.61 110.34 41.80 110.98 C 45.83 111.09 49.87 110.82 53.89 111.11 C 56.18 111.37 57.26 113.91 57.27 115.96 C 57.33 121.34 57.33 126.73 57.22 132.11 C 57.50 133.87 55.78 134.73 54.52 135.41 C 54.10 129.60 54.73 123.75 54.16 117.95 C 51.06 115.79 44.90 115.82 43.60 120.16 C 42.33 124.98 44.95 129.99 43.21 134.80 C 40.67 135.01 38.11 135.02 35.56 134.99 C 36.01 133.13 36.47 131.28 36.91 129.42 C 37.79 129.35 39.55 129.20 40.43 129.13 C 39.98 124.98 39.51 120.22 42.71 116.99 C 38.12 116.66 38.54 110.98 41.02 108.42 Z" />
<path fill="#000000" d=" M 79.02 108.42 C 79.21 109.06 79.61 110.34 79.80 110.98 C 83.83 111.09 87.87 110.82 91.89 111.11 C 94.18 111.37 95.26 113.92 95.27 115.96 C 95.33 121.33 95.33 126.71 95.23 132.08 C 95.54 133.89 93.77 134.68 92.53 135.43 C 92.09 129.64 92.74 123.81 92.16 118.04 C 89.21 115.73 82.94 115.82 81.62 120.10 C 80.31 124.93 82.96 129.96 81.22 134.79 C 78.68 135.01 76.12 135.02 73.56 134.99 C 74.00 133.13 74.48 131.28 74.91 129.43 C 75.79 129.35 77.55 129.20 78.43 129.12 C 77.99 124.99 77.50 120.22 80.71 117.00 C 76.12 116.63 76.54 110.99 79.02 108.42 Z" />
<path fill="#000000" d=" M 99.05 114.41 C 98.24 112.45 99.48 110.56 100.55 109.00 C 101.42 112.75 106.64 109.47 107.90 112.81 C 109.79 117.38 107.44 123.28 102.82 125.18 C 103.12 122.48 105.67 120.59 105.48 117.79 C 103.59 116.14 99.54 117.51 99.05 114.41 Z" />
<path fill="#000000" d=" M 114.84 116.29 C 112.44 114.37 113.59 110.88 114.95 108.64 C 116.24 112.71 121.02 110.36 124.09 111.02 C 127.91 110.78 130.12 114.73 130.50 118.04 C 131.00 122.38 131.16 126.99 129.44 131.10 C 128.56 133.19 126.56 135.06 124.16 134.97 C 120.40 135.09 116.64 134.99 112.87 134.93 C 113.34 133.04 113.78 131.16 114.31 129.30 C 118.12 129.10 122.00 129.65 125.77 128.92 C 129.17 127.07 129.21 121.72 127.28 118.76 C 124.18 115.10 118.82 117.73 114.84 116.29 Z" />
<path fill="#000000" d=" M 135.05 108.55 C 135.26 109.15 135.70 110.35 135.92 110.95 C 141.32 111.18 146.76 110.65 152.14 111.33 C 152.15 113.01 152.16 114.68 152.17 116.36 C 151.77 116.77 150.95 117.59 150.54 118.00 C 150.17 122.40 151.41 126.70 151.41 131.08 C 151.58 133.44 149.51 134.86 147.55 135.52 C 148.44 129.28 146.30 122.62 148.95 116.71 C 144.21 116.51 139.35 117.25 134.68 116.31 C 132.07 114.42 133.53 110.69 135.05 108.55 Z" />
<path fill="#000000" d=" M 170.38 116.46 C 167.25 115.11 168.72 111.07 169.92 108.80 C 170.27 109.27 170.98 110.21 171.33 110.68 C 175.42 111.53 179.72 110.59 183.87 111.14 C 186.74 112.03 185.78 116.25 183.32 117.15 C 183.04 125.12 183.90 133.07 184.21 141.02 C 184.49 143.60 182.51 145.24 180.38 146.12 C 180.82 136.34 180.41 126.52 181.21 116.75 C 177.61 116.61 173.95 117.04 170.38 116.46 Z" />
<path fill="#000000" d=" M 207.02 108.43 C 207.22 109.07 207.61 110.34 207.80 110.98 C 211.81 111.09 215.83 110.83 219.84 111.11 C 222.13 111.33 223.24 113.86 223.26 115.90 C 223.33 121.29 223.33 126.69 223.23 132.09 C 223.53 133.87 221.77 134.70 220.52 135.42 C 220.10 129.58 220.74 123.71 220.15 117.89 C 217.00 115.88 211.01 115.79 209.64 120.06 C 208.29 124.90 210.96 129.95 209.23 134.79 C 206.68 135.01 204.12 135.02 201.56 134.99 C 202.00 133.13 202.47 131.28 202.91 129.42 C 203.79 129.35 205.55 129.20 206.43 129.12 C 205.99 124.98 205.50 120.22 208.72 116.99 C 204.13 116.62 204.53 110.99 207.02 108.43 Z" />
<path fill="#000000" d=" M 263.07 108.39 C 263.28 108.98 263.71 110.16 263.92 110.75 C 265.69 111.20 268.21 110.65 269.11 112.69 C 269.63 114.11 269.23 115.71 269.31 117.20 C 268.58 117.21 267.13 117.24 266.40 117.25 C 265.53 120.97 264.86 125.52 267.33 128.75 C 270.36 129.64 274.02 129.60 277.07 128.69 C 279.28 125.51 280.08 118.46 275.03 117.73 C 272.87 118.44 271.39 120.32 269.54 121.54 C 270.24 117.83 271.46 113.68 274.78 111.50 C 276.84 110.11 279.59 111.59 280.22 113.83 C 282.51 120.76 280.69 128.34 278.03 134.91 C 273.34 135.05 268.64 135.05 263.95 134.91 C 263.64 128.96 261.14 122.65 264.31 117.02 C 260.38 115.74 260.82 111.06 263.07 108.39 Z" />
<path fill="#000000" d=" M 307.02 108.43 C 307.20 109.00 307.58 110.13 307.76 110.70 C 309.15 111.13 310.89 110.95 312.01 112.04 C 313.08 113.39 312.59 115.32 312.97 116.89 C 315.13 115.20 316.41 112.76 317.72 110.42 C 320.91 111.26 323.87 113.38 324.63 116.76 C 326.36 122.67 325.07 128.92 324.00 134.84 C 320.03 135.09 316.04 135.02 312.07 134.94 C 312.50 133.05 312.98 131.17 313.51 129.30 C 316.42 129.27 319.34 129.28 322.27 129.16 C 323.51 125.81 323.78 121.56 321.15 118.79 C 318.67 116.23 314.18 117.04 312.23 119.84 C 308.99 123.95 309.18 129.42 309.22 134.37 C 308.46 134.61 306.94 135.09 306.17 135.33 C 305.75 129.15 307.08 122.89 310.73 117.80 C 309.05 117.25 307.08 117.20 305.74 115.97 C 304.71 113.40 305.26 110.53 307.02 108.43 Z" />
<path fill="#000000" d=" M 60.62 112.92 C 61.20 111.48 61.80 110.07 62.43 108.66 C 63.15 111.85 66.47 110.62 68.73 111.47 C 70.66 112.60 70.52 115.08 70.60 117.01 C 70.58 122.23 70.82 127.46 70.43 132.67 C 70.49 134.21 68.81 134.65 67.85 135.46 C 67.49 129.49 68.16 123.47 67.47 117.52 C 65.60 116.82 63.61 116.56 61.68 116.07 C 61.42 115.28 60.89 113.70 60.62 112.92 Z" />
<path fill="#000000" d=" M 188.53 113.06 C 189.14 111.58 189.77 110.11 190.44 108.66 C 191.15 111.83 194.44 110.64 196.70 111.46 C 198.65 112.56 198.52 115.05 198.60 116.97 C 198.58 122.21 198.83 127.47 198.43 132.70 C 198.47 134.22 196.79 134.65 195.85 135.46 C 195.49 129.48 196.16 123.46 195.47 117.51 C 192.70 116.60 188.81 116.95 188.53 113.06 Z" />
<path fill="#000000" d=" M 285.55 115.72 C 284.05 113.41 285.18 110.81 286.38 108.68 C 288.57 114.21 296.88 108.05 299.89 112.87 C 301.99 118.14 301.01 124.04 299.02 129.19 C 300.34 129.26 301.66 129.34 302.99 129.42 C 302.51 131.29 301.99 133.15 301.43 135.00 C 295.71 134.98 289.98 135.05 284.26 134.96 C 284.70 133.07 285.18 131.19 285.68 129.32 C 289.39 129.03 293.27 129.76 296.88 128.86 C 298.76 125.72 298.68 121.22 297.06 117.91 C 293.81 115.23 288.88 118.17 285.55 115.72 Z" />
<path fill="#000000" d=" M 134.50 123.35 C 135.24 122.93 136.72 122.08 137.46 121.66 C 137.36 125.49 137.68 129.34 137.24 133.16 C 136.59 134.61 134.92 134.98 133.67 135.71 C 134.02 131.61 133.07 127.28 134.50 123.35 Z" />
</svg>
